<svg width="2864" height="928" viewBox="0 0 2864 928" fill="none" xmlns="http://www.w3.org/2000/svg">
<g clip-path="url(#clip0_6_11)">
<path d="M1064.29 382.904C743.174 444.215 407.405 508.446 86.2894 569.757C125.714 565.686 214.738 558.194 254.133 553.845L260.794 576.305C319.932 751.056 535.937 831.21 699.586 748.54C748.487 676.452 819.497 568.521 870.659 492.594L1064.29 382.904ZM697.774 571.919C678.715 599.853 651.496 638.874 631.993 666.495C533.539 707.287 401.521 654.702 363.817 555.292C362.721 552.403 362.115 549.327 360.438 543.321C487.418 530.523 613.365 517.829 743.428 504.72C726.553 529.565 712.204 550.769 697.774 571.919Z" fill="#191923"/>
<path d="M348.994 473.244L350.329 444.428C350.58 442.644 350.901 440.866 351.28 439.105C368.735 357.984 416.442 302.542 495.988 279.474C577.801 255.749 653.271 274.396 707.291 340.494C713.757 348.406 730.986 373.8 730.986 373.8C730.986 373.8 838.774 353.505 833.473 351.557C797.228 248.125 655.796 135.424 484.439 174.803C308.161 215.313 230.571 383.865 247.086 498.081C270.307 492.513 325.949 478.889 348.994 473.244Z" fill="#191923"/>
<path d="M977.28 625.06C920.112 627.264 907.676 639.701 905.471 696.869C903.266 639.701 890.83 627.264 833.662 625.06C890.83 622.855 903.266 610.419 905.471 553.251C907.676 610.419 920.112 622.855 977.28 625.06Z" fill="#191923"/>
<path d="M977.28 625.06C920.112 627.264 907.676 639.701 905.471 696.869C903.266 639.701 890.83 627.264 833.662 625.06C890.83 622.855 903.266 610.419 905.471 553.251C907.676 610.419 920.112 622.855 977.28 625.06Z" fill="#191923"/>
<path d="M1039.12 576.53C1018.07 577.341 1013.5 581.92 1012.68 602.967C1011.87 581.92 1007.29 577.341 986.246 576.53C1007.29 575.718 1011.87 571.139 1012.68 550.092C1013.5 571.139 1018.07 575.718 1039.12 576.53Z" fill="#191923"/>
</g>
<path d="M1364.9 487.225H1491.74V500.938C1491.74 518.46 1488.69 534.966 1482.6 550.456C1476.5 565.819 1467.87 579.341 1456.7 591.023C1445.65 602.704 1432.64 611.846 1417.65 618.448C1402.67 625.051 1386.23 628.352 1368.33 628.352C1350.04 628.352 1333.28 624.987 1318.05 618.258C1302.81 611.401 1289.6 602.006 1278.43 590.07C1267.26 578.008 1258.62 564.105 1252.53 548.361C1246.43 532.617 1243.39 515.793 1243.39 497.89C1243.39 480.115 1246.43 463.355 1252.53 447.61C1258.62 431.866 1267.26 418.027 1278.43 406.091C1289.6 394.156 1302.81 384.824 1318.05 378.095C1333.28 371.238 1350.04 367.81 1368.33 367.81C1380.77 367.81 1392.13 369.207 1402.42 372C1412.83 374.666 1422.16 378.476 1430.41 383.427C1438.79 388.252 1446.22 393.775 1452.7 399.997C1459.17 406.091 1464.76 412.567 1469.46 419.423L1439.94 435.231C1432.32 424.692 1422.54 415.995 1410.61 409.139C1398.67 402.282 1384.58 398.854 1368.33 398.854C1355.12 398.854 1342.93 401.457 1331.76 406.663C1320.58 411.869 1310.87 419.042 1302.62 428.184C1294.49 437.326 1288.21 447.864 1283.76 459.8C1279.32 471.735 1277.1 484.432 1277.1 497.89C1277.1 511.349 1279.32 524.11 1283.76 536.172C1288.21 548.107 1294.49 558.709 1302.62 567.978C1310.87 577.12 1320.58 584.293 1331.76 589.499C1342.93 594.705 1355.12 597.308 1368.33 597.308C1380.9 597.308 1392.39 595.149 1402.8 590.832C1413.21 586.515 1422.29 580.548 1430.03 572.93C1437.78 565.311 1443.87 556.423 1448.32 546.266C1452.76 536.108 1455.24 525.189 1455.74 513.508H1364.9V487.225Z" fill="#191923"/>
<path d="M1529.74 372.381H1678.29V401.901H1561.92V483.416H1676V512.175H1561.92V594.26H1678.29V623.781H1529.74V372.381Z" fill="#191923"/>
<path d="M1760.33 403.235L1762.43 403.616V623.781H1729.86V372.381H1775.76L1906.22 592.356L1904.13 592.737V372.381H1936.69V623.781H1890.41L1760.33 403.235Z" fill="#191923"/>
<path d="M1988.02 372.381H2136.57V401.901H2020.2V483.416H2134.29V512.175H2020.2V594.26H2136.57V623.781H1988.02V372.381Z" fill="#191923"/>
<path d="M2266.23 367.81C2280.7 367.81 2293.15 369.461 2303.56 372.762C2314.1 376.063 2322.35 379.555 2328.32 383.237C2334.41 386.919 2338.03 389.331 2339.17 390.474L2322.41 417.328C2320.51 415.678 2317.14 413.329 2312.32 410.281C2307.49 407.107 2301.46 404.314 2294.23 401.901C2286.99 399.362 2278.74 398.092 2269.47 398.092C2255.12 398.092 2243.75 401.013 2235.37 406.853C2227.12 412.567 2223 420.693 2223 431.231C2223 438.342 2225.15 444.627 2229.47 450.086C2233.91 455.419 2240.14 460.307 2248.14 464.751C2256.13 469.195 2265.47 473.766 2276.13 478.464C2284.89 482.146 2293.46 486.336 2301.84 491.034C2310.35 495.732 2318.03 501.255 2324.89 507.604C2331.87 513.952 2337.4 521.316 2341.46 529.696C2345.65 538.076 2347.74 547.726 2347.74 558.645C2347.74 569.438 2345.52 579.151 2341.08 587.785C2336.76 596.419 2330.6 603.783 2322.6 609.878C2314.73 615.845 2305.53 620.416 2294.99 623.59C2284.45 626.765 2273.08 628.352 2260.9 628.352C2245.53 628.352 2231.63 626.447 2219.19 622.638C2206.87 618.829 2196.9 614.829 2189.29 610.639C2181.79 606.449 2177.48 603.847 2176.33 602.831L2194.05 574.834C2195.57 576.104 2198.36 578.008 2202.43 580.548C2206.49 582.96 2211.5 585.5 2217.47 588.166C2223.44 590.832 2230.17 593.118 2237.66 595.022C2245.15 596.8 2253.15 597.689 2261.66 597.689C2278.67 597.689 2291.56 593.88 2300.32 586.261C2309.08 578.643 2313.46 568.866 2313.46 556.931C2313.46 547.79 2310.67 539.917 2305.08 533.315C2299.49 526.713 2292.07 520.808 2282.8 515.603C2273.53 510.397 2263.31 505.382 2252.13 500.557C2240.71 495.351 2230.23 489.637 2220.71 483.416C2211.19 477.194 2203.51 469.767 2197.66 461.133C2191.95 452.372 2189.09 441.833 2189.09 429.517C2189.09 417.328 2192.52 406.599 2199.38 397.331C2206.36 388.062 2215.69 380.824 2227.38 375.619C2239.18 370.413 2252.13 367.81 2266.23 367.81Z" fill="#191923"/>
<path d="M2392.05 372.381H2424.81V623.781H2392.05V372.381Z" fill="#191923"/>
<path d="M2556.37 367.81C2570.85 367.81 2583.29 369.461 2593.7 372.762C2604.24 376.063 2612.49 379.555 2618.46 383.237C2624.56 386.919 2628.18 389.331 2629.32 390.474L2612.56 417.328C2610.65 415.678 2607.29 413.329 2602.46 410.281C2597.64 407.107 2591.61 404.314 2584.37 401.901C2577.13 399.362 2568.88 398.092 2559.61 398.092C2545.26 398.092 2533.9 401.013 2525.52 406.853C2517.27 412.567 2513.14 420.693 2513.14 431.231C2513.14 438.342 2515.3 444.627 2519.62 450.086C2524.06 455.419 2530.28 460.307 2538.28 464.751C2546.28 469.195 2555.61 473.766 2566.28 478.464C2575.04 482.146 2583.61 486.336 2591.99 491.034C2600.5 495.732 2608.18 501.255 2615.03 507.604C2622.02 513.952 2627.54 521.316 2631.6 529.696C2635.79 538.076 2637.89 547.726 2637.89 558.645C2637.89 569.438 2635.67 579.151 2631.22 587.785C2626.91 596.419 2620.75 603.783 2612.75 609.878C2604.88 615.845 2595.67 620.416 2585.13 623.59C2574.59 626.765 2563.23 628.352 2551.04 628.352C2535.68 628.352 2521.77 626.447 2509.33 622.638C2497.02 618.829 2487.05 614.829 2479.43 610.639C2471.94 606.449 2467.62 603.847 2466.48 602.831L2484.19 574.834C2485.72 576.104 2488.51 578.008 2492.57 580.548C2496.63 582.96 2501.65 585.5 2507.62 588.166C2513.59 590.832 2520.31 593.118 2527.81 595.022C2535.3 596.8 2543.3 597.689 2551.8 597.689C2568.82 597.689 2581.7 593.88 2590.47 586.261C2599.23 578.643 2603.61 568.866 2603.61 556.931C2603.61 547.79 2600.81 539.917 2595.23 533.315C2589.64 526.713 2582.21 520.808 2572.94 515.603C2563.67 510.397 2553.45 505.382 2542.28 500.557C2530.85 495.351 2520.38 489.637 2510.86 483.416C2501.33 477.194 2493.65 469.767 2487.81 461.133C2482.1 452.372 2479.24 441.833 2479.24 429.517C2479.24 417.328 2482.67 406.599 2489.52 397.331C2496.51 388.062 2505.84 380.824 2517.52 375.619C2529.33 370.413 2542.28 367.81 2556.37 367.81Z" fill="#191923"/>
<path fill-rule="evenodd" clip-rule="evenodd" d="M1359.9 482.225H1496.74V500.938C1496.74 519.053 1493.59 536.183 1487.25 552.287L1487.25 552.3C1480.92 568.244 1471.94 582.313 1460.32 594.468C1448.81 606.637 1435.25 616.16 1419.67 623.024C1403.99 629.931 1386.86 633.352 1368.33 633.352C1349.41 633.352 1331.96 629.868 1316.03 622.831L1316.01 622.824L1315.99 622.817C1300.17 615.696 1286.42 605.916 1274.78 593.488L1274.77 593.478L1274.76 593.468C1263.15 580.93 1254.18 566.483 1247.87 550.166C1241.54 533.812 1238.39 516.373 1238.39 497.89C1238.39 479.53 1241.54 462.155 1247.87 445.806C1254.18 429.484 1263.16 415.092 1274.78 402.674C1286.42 390.243 1300.18 380.523 1316.01 373.528C1331.95 366.36 1349.41 362.81 1368.33 362.81C1381.12 362.81 1392.93 364.245 1403.69 367.165C1414.49 369.933 1424.25 373.906 1432.95 379.116C1441.63 384.118 1449.37 389.867 1456.14 396.373C1462.85 402.692 1468.67 409.432 1473.58 416.597L1476.73 421.198L1438.44 441.702L1435.88 438.16C1428.7 428.229 1419.47 419.999 1408.12 413.474C1397.06 407.126 1383.86 403.854 1368.33 403.854C1355.8 403.854 1344.34 406.319 1333.87 411.195C1323.31 416.115 1314.14 422.883 1306.34 431.52C1298.65 440.177 1292.68 450.171 1288.45 461.544C1284.22 472.89 1282.1 484.993 1282.1 497.89C1282.1 510.784 1284.22 522.955 1288.45 534.435C1292.69 545.806 1298.66 555.866 1306.35 564.655C1314.15 573.286 1323.31 580.049 1333.87 584.967C1344.34 589.843 1355.8 592.308 1368.33 592.308C1380.31 592.308 1391.14 590.251 1400.88 586.214C1410.72 582.133 1419.26 576.516 1426.53 569.365C1433.81 562.203 1439.54 553.848 1443.74 544.262C1447.26 536.215 1449.48 527.638 1450.38 518.508H1359.9V482.225ZM1455.74 513.508C1455.67 515.19 1455.56 516.857 1455.4 518.508C1454.48 528.319 1452.12 537.571 1448.32 546.266C1443.87 556.423 1437.78 565.311 1430.03 572.93C1422.29 580.548 1413.21 586.515 1402.8 590.832C1392.39 595.149 1380.9 597.308 1368.33 597.308C1355.12 597.308 1342.93 594.705 1331.76 589.499C1320.58 584.293 1310.87 577.12 1302.62 567.978C1294.49 558.709 1288.21 548.107 1283.76 536.172C1279.32 524.11 1277.1 511.349 1277.1 497.89C1277.1 484.432 1279.32 471.735 1283.76 459.8C1288.21 447.864 1294.49 437.326 1302.62 428.184C1310.87 419.042 1320.58 411.869 1331.76 406.663C1342.93 401.457 1355.12 398.854 1368.33 398.854C1384.58 398.854 1398.67 402.282 1410.61 409.139C1422.54 415.995 1432.32 424.692 1439.94 435.231L1469.46 419.423C1468.51 418.043 1467.53 416.678 1466.51 415.329C1462.47 409.975 1457.87 404.864 1452.7 399.997C1446.22 393.775 1438.79 388.252 1430.41 383.427C1422.16 378.476 1412.83 374.666 1402.42 372C1392.13 369.207 1380.77 367.81 1368.33 367.81C1350.04 367.81 1333.28 371.238 1318.05 378.095C1302.81 384.824 1289.6 394.156 1278.43 406.091C1267.26 418.027 1258.62 431.866 1252.53 447.61C1246.43 463.355 1243.39 480.115 1243.39 497.89C1243.39 515.793 1246.43 532.617 1252.53 548.361C1258.62 564.105 1267.26 578.008 1278.43 590.07C1289.6 602.006 1302.81 611.401 1318.05 618.258C1333.28 624.987 1350.04 628.352 1368.33 628.352C1386.23 628.352 1402.67 625.051 1417.65 618.448C1432.64 611.846 1445.65 602.704 1456.7 591.023C1467.87 579.341 1476.5 565.819 1482.6 550.456C1488.69 534.966 1491.74 518.46 1491.74 500.938V487.225H1364.9V513.508H1455.74ZM1524.74 367.381H1683.29V406.901H1566.92V478.416H1681V517.175H1566.92V589.26H1683.29V628.781H1524.74V367.381ZM1561.92 594.26V512.175H1676V483.416H1561.92V401.901H1678.29V372.381H1529.74V623.781H1678.29V594.26H1561.92ZM1762.43 406.787V623.781H1729.86V372.381H1775.76L1904.13 588.823V372.381H1936.69V623.781H1890.41L1762.43 406.787ZM1899.13 570.591L1778.61 367.381H1724.86V628.781H1767.43V425.106L1887.56 628.781H1941.69V367.381H1899.13V570.591ZM1983.02 367.381H2141.57V406.901H2025.2V478.416H2139.29V517.175H2025.2V589.26H2141.57V628.781H1983.02V367.381ZM2020.2 594.26V512.175H2134.29V483.416H2020.2V401.901H2136.57V372.381H1988.02V623.781H2136.57V594.26H2020.2ZM2198.11 577.769C2199.34 578.591 2200.78 579.517 2202.43 580.548C2206.49 582.96 2211.5 585.5 2217.47 588.166C2223.44 590.832 2230.17 593.118 2237.66 595.022C2245.15 596.8 2253.15 597.689 2261.66 597.689C2278.67 597.689 2291.56 593.88 2300.32 586.261C2309.08 578.643 2313.46 568.866 2313.46 556.931C2313.46 547.79 2310.67 539.917 2305.08 533.315C2299.49 526.713 2292.07 520.808 2282.8 515.603C2273.53 510.397 2263.31 505.382 2252.13 500.557C2240.71 495.351 2230.23 489.637 2220.71 483.416C2211.19 477.194 2203.51 469.767 2197.66 461.133C2191.95 452.372 2189.09 441.833 2189.09 429.517C2189.09 417.328 2192.52 406.599 2199.38 397.331C2206.36 388.062 2215.69 380.824 2227.38 375.619C2239.18 370.413 2252.13 367.81 2266.23 367.81C2280.7 367.81 2293.15 369.461 2303.56 372.762C2314.1 376.063 2322.35 379.555 2328.32 383.237C2334.41 386.919 2338.03 389.331 2339.17 390.474L2322.41 417.328C2321.45 416.495 2320.12 415.484 2318.41 414.295C2316.74 413.128 2314.71 411.79 2312.32 410.281C2307.49 407.107 2301.46 404.314 2294.23 401.901C2286.99 399.362 2278.74 398.092 2269.47 398.092C2255.12 398.092 2243.75 401.013 2235.37 406.853C2227.12 412.567 2223 420.693 2223 431.231C2223 438.342 2225.15 444.627 2229.47 450.086C2233.91 455.419 2240.14 460.307 2248.14 464.751C2256.13 469.195 2265.47 473.766 2276.13 478.464C2284.89 482.146 2293.46 486.336 2301.84 491.034C2310.35 495.732 2318.03 501.255 2324.89 507.604C2331.87 513.952 2337.4 521.316 2341.46 529.696C2345.65 538.076 2347.74 547.726 2347.74 558.645C2347.74 569.438 2345.52 579.151 2341.08 587.785C2336.76 596.419 2330.6 603.783 2322.6 609.878C2314.73 615.845 2305.53 620.416 2294.99 623.59C2284.45 626.765 2273.08 628.352 2260.9 628.352C2245.53 628.352 2231.63 626.447 2219.19 622.638C2206.87 618.829 2196.9 614.829 2189.29 610.639C2181.79 606.449 2177.48 603.847 2176.33 602.831L2194.05 574.834C2194.95 575.588 2196.3 576.567 2198.11 577.769ZM2345.54 590.045C2340.87 599.38 2334.21 607.323 2325.63 613.855L2325.62 613.862C2317.23 620.228 2307.47 625.052 2296.43 628.378C2285.38 631.707 2273.52 633.352 2260.9 633.352C2245.12 633.352 2230.72 631.397 2217.72 627.419L2217.72 627.417L2217.71 627.415C2205.21 623.549 2194.9 619.431 2186.88 615.021L2186.86 615.012L2186.84 615.003C2183.08 612.897 2180.07 611.169 2177.85 609.827C2175.78 608.583 2173.99 607.44 2173.01 606.568L2169.84 603.747L2192.87 567.344L2197.25 570.993C2198.48 572.018 2200.99 573.754 2205.03 576.278C2208.87 578.554 2213.68 580.997 2219.51 583.601C2225.17 586.127 2231.61 588.322 2238.85 590.167C2245.92 591.839 2253.51 592.689 2261.66 592.689C2278.01 592.689 2289.53 589.017 2297.04 582.488C2304.67 575.85 2308.46 567.466 2308.46 556.931C2308.46 548.899 2306.04 542.19 2301.26 536.545C2296.14 530.488 2289.21 524.941 2280.35 519.962C2271.25 514.853 2261.19 509.913 2250.15 505.147L2250.11 505.127L2250.06 505.107C2238.43 499.807 2227.73 493.975 2217.98 487.602C2207.95 481.05 2199.77 473.167 2193.52 463.934L2193.5 463.899L2193.48 463.864C2187.15 454.155 2184.09 442.628 2184.09 429.517C2184.09 416.323 2187.83 404.537 2195.36 394.357L2195.37 394.339L2195.39 394.322C2202.93 384.309 2212.97 376.566 2225.34 371.052L2225.35 371.048L2225.36 371.044C2237.86 365.533 2251.5 362.81 2266.23 362.81C2281.06 362.81 2294.03 364.498 2305.06 367.994C2315.78 371.352 2324.46 374.986 2330.92 378.968C2333.99 380.822 2336.48 382.385 2338.38 383.648C2340.15 384.829 2341.74 385.969 2342.71 386.939L2345.52 389.749L2323.56 424.937L2319.14 421.107C2317.54 419.724 2314.46 417.546 2309.65 414.509L2309.61 414.484L2309.57 414.458C2305.2 411.585 2299.59 408.961 2292.64 406.645L2292.61 406.632L2292.57 406.619C2285.96 404.301 2278.29 403.092 2269.47 403.092C2255.74 403.092 2245.5 405.892 2238.23 410.955L2238.23 410.96L2238.22 410.964C2231.39 415.69 2228 422.237 2228 431.231C2228 437.22 2229.78 442.39 2233.35 446.935C2237.3 451.651 2242.97 456.161 2250.56 460.381C2258.39 464.728 2267.56 469.226 2278.11 473.872C2287.03 477.622 2295.75 481.887 2304.28 486.666C2313.11 491.546 2321.11 497.296 2328.27 503.92C2335.7 510.68 2341.6 518.541 2345.94 527.482C2350.52 536.657 2352.74 547.087 2352.74 558.645C2352.74 570.132 2350.37 580.635 2345.54 590.045ZM2387.05 367.381H2429.81V628.781H2387.05V367.381ZM2488.25 577.769C2489.48 578.591 2490.92 579.517 2492.57 580.548C2496.63 582.96 2501.65 585.5 2507.62 588.166C2513.59 590.832 2520.31 593.118 2527.81 595.022C2535.3 596.8 2543.3 597.689 2551.8 597.689C2568.82 597.689 2581.7 593.88 2590.47 586.261C2599.23 578.643 2603.61 568.866 2603.61 556.931C2603.61 547.79 2600.81 539.917 2595.23 533.315C2589.64 526.713 2582.21 520.808 2572.94 515.603C2563.67 510.397 2553.45 505.382 2542.28 500.557C2530.85 495.351 2520.38 489.637 2510.86 483.416C2501.33 477.194 2493.65 469.767 2487.81 461.133C2482.1 452.372 2479.24 441.833 2479.24 429.517C2479.24 417.328 2482.67 406.599 2489.52 397.331C2496.51 388.062 2505.84 380.824 2517.52 375.619C2529.33 370.413 2542.28 367.81 2556.37 367.81C2570.85 367.81 2583.29 369.461 2593.7 372.762C2604.24 376.063 2612.49 379.555 2618.46 383.237C2624.56 386.919 2628.18 389.331 2629.32 390.474L2612.56 417.328C2611.6 416.495 2610.26 415.484 2608.56 414.295C2606.88 413.128 2604.85 411.79 2602.46 410.281C2597.64 407.107 2591.61 404.314 2584.37 401.901C2577.13 399.362 2568.88 398.092 2559.61 398.092C2545.26 398.092 2533.9 401.013 2525.52 406.853C2517.27 412.567 2513.14 420.693 2513.14 431.231C2513.14 438.342 2515.3 444.627 2519.62 450.086C2524.06 455.419 2530.28 460.307 2538.28 464.751C2546.28 469.195 2555.61 473.766 2566.28 478.464C2575.04 482.146 2583.61 486.336 2591.99 491.034C2600.5 495.732 2608.18 501.255 2615.03 507.604C2622.02 513.952 2627.54 521.316 2631.6 529.696C2635.79 538.076 2637.89 547.726 2637.89 558.645C2637.89 569.438 2635.67 579.151 2631.22 587.785C2626.91 596.419 2620.75 603.783 2612.75 609.878C2604.88 615.845 2595.67 620.416 2585.13 623.59C2574.59 626.765 2563.23 628.352 2551.04 628.352C2535.68 628.352 2521.77 626.447 2509.33 622.638C2497.02 618.829 2487.05 614.829 2479.43 610.639C2471.94 606.449 2467.62 603.847 2466.48 602.831L2484.19 574.834C2485.1 575.588 2486.45 576.567 2488.25 577.769ZM2635.68 590.045C2631.01 599.38 2624.35 607.323 2615.78 613.855L2615.77 613.862C2607.37 620.228 2597.62 625.052 2586.57 628.378C2575.52 631.707 2563.67 633.352 2551.04 633.352C2535.27 633.352 2520.86 631.397 2507.87 627.419L2507.86 627.417L2507.85 627.415C2495.35 623.549 2485.04 619.431 2477.02 615.021L2477.01 615.012L2476.99 615.003C2473.22 612.897 2470.22 611.169 2467.99 609.827C2465.93 608.583 2464.14 607.44 2463.16 606.568L2459.98 603.747L2483.01 567.344L2487.39 570.993C2488.62 572.017 2491.14 573.754 2495.17 576.277C2499.01 578.554 2503.83 580.997 2509.66 583.601C2515.31 586.127 2521.75 588.322 2529 590.166C2536.06 591.839 2543.66 592.689 2551.8 592.689C2568.16 592.689 2579.68 589.017 2587.18 582.488C2594.82 575.85 2598.61 567.466 2598.61 556.931C2598.61 548.899 2596.19 542.19 2591.41 536.545C2586.29 530.488 2579.36 524.941 2570.5 519.962C2561.4 514.853 2551.33 509.913 2540.3 505.147L2540.25 505.127L2540.21 505.107C2528.57 499.807 2517.87 493.975 2508.12 487.602C2498.09 481.05 2489.91 473.167 2483.67 463.934L2483.65 463.899L2483.62 463.864C2477.29 454.155 2474.24 442.628 2474.24 429.517C2474.24 416.323 2477.97 404.538 2485.5 394.357L2485.52 394.339L2485.53 394.322C2493.08 384.309 2503.11 376.566 2515.49 371.052L2515.5 371.048L2515.5 371.044C2528 365.533 2541.65 362.81 2556.37 362.81C2571.2 362.81 2584.18 364.498 2595.21 367.994C2605.93 371.352 2614.61 374.986 2621.07 378.968C2624.13 380.822 2626.63 382.385 2628.52 383.648C2630.29 384.829 2631.88 385.969 2632.85 386.939L2635.66 389.749L2613.7 424.937L2609.28 421.107C2607.69 419.724 2604.6 417.546 2599.79 414.509L2599.75 414.484L2599.72 414.458C2595.35 411.585 2589.74 408.961 2582.79 406.645L2582.75 406.632L2582.72 406.619C2576.11 404.301 2568.43 403.092 2559.61 403.092C2545.89 403.092 2535.64 405.892 2528.38 410.955L2528.37 410.96L2528.37 410.964C2521.54 415.69 2518.14 422.237 2518.14 431.231C2518.14 437.221 2519.92 442.392 2523.5 446.937C2527.44 451.653 2533.11 456.161 2540.71 460.381C2548.53 464.728 2557.71 469.226 2568.26 473.872C2577.17 477.622 2585.9 481.887 2594.42 486.666C2603.26 491.546 2611.26 497.296 2618.42 503.92C2625.85 510.68 2631.75 518.541 2636.09 527.482C2640.67 536.657 2642.89 547.087 2642.89 558.645C2642.89 570.132 2640.52 580.635 2635.68 590.045ZM2424.81 372.381V623.781H2392.05V372.381H2424.81Z" fill="black"/>
<defs>
<clipPath id="clip0_6_11">
<rect width="978" height="614.473" fill="white" transform="translate(86.2894 166.763)"/>
</clipPath>
</defs>
</svg>
