<svg width="3184" height="928" viewBox="0 0 3184 928" fill="none" xmlns="http://www.w3.org/2000/svg">
<g clip-path="url(#clip0_6_11)">
<path d="M1064.29 382.904C743.174 444.215 407.405 508.446 86.2894 569.757C125.714 565.686 214.738 558.194 254.133 553.845L260.794 576.305C319.932 751.056 535.937 831.21 699.586 748.54C748.487 676.452 819.497 568.521 870.659 492.594L1064.29 382.904ZM697.774 571.919C678.715 599.853 651.496 638.874 631.993 666.495C533.539 707.287 401.521 654.702 363.817 555.292C362.721 552.403 362.115 549.327 360.438 543.321C487.418 530.523 613.365 517.829 743.428 504.72C726.553 529.565 712.204 550.769 697.774 571.919Z" fill="#191923"/>
<path d="M348.994 473.244L350.329 444.428C350.58 442.644 350.901 440.866 351.28 439.105C368.735 357.984 416.442 302.542 495.988 279.474C577.801 255.749 653.271 274.396 707.291 340.494C713.757 348.406 730.986 373.8 730.986 373.8C730.986 373.8 838.774 353.505 833.473 351.557C797.228 248.125 655.796 135.424 484.439 174.803C308.161 215.313 230.571 383.865 247.086 498.081C270.307 492.513 325.949 478.889 348.994 473.244Z" fill="#191923"/>
<path d="M977.28 625.06C920.112 627.264 907.676 639.701 905.471 696.869C903.266 639.701 890.83 627.264 833.662 625.06C890.83 622.855 903.266 610.419 905.471 553.251C907.676 610.419 920.112 622.855 977.28 625.06Z" fill="#191923"/>
<path d="M977.28 625.06C920.112 627.264 907.676 639.701 905.471 696.869C903.266 639.701 890.83 627.264 833.662 625.06C890.83 622.855 903.266 610.419 905.471 553.251C907.676 610.419 920.112 622.855 977.28 625.06Z" fill="#191923"/>
<path d="M1039.12 576.53C1018.07 577.341 1013.5 581.92 1012.68 602.967C1011.87 581.92 1007.29 577.341 986.246 576.53C1007.29 575.718 1011.87 571.139 1012.68 550.092C1013.5 571.139 1018.07 575.718 1039.12 576.53Z" fill="#191923"/>
</g>
<path d="M1405.64 463.646H1562.48V480.602C1562.48 502.268 1558.71 522.678 1551.17 541.832C1543.64 560.829 1532.96 577.55 1519.15 591.994C1505.49 606.438 1489.4 617.742 1470.87 625.906C1452.34 634.07 1432.01 638.152 1409.87 638.152C1387.27 638.152 1366.54 633.992 1347.7 625.671C1328.86 617.193 1312.53 605.574 1298.72 590.816C1284.9 575.901 1274.23 558.71 1266.69 539.242C1259.15 519.774 1255.39 498.971 1255.39 476.835C1255.39 454.854 1259.15 434.13 1266.69 414.662C1274.23 395.194 1284.9 378.081 1298.72 363.323C1312.53 348.565 1328.86 337.026 1347.7 328.705C1366.54 320.227 1387.27 315.988 1409.87 315.988C1425.26 315.988 1439.31 317.715 1452.03 321.169C1464.9 324.466 1476.44 329.176 1486.65 335.299C1497.01 341.265 1506.19 348.094 1514.2 355.787C1522.21 363.323 1529.12 371.33 1534.93 379.808L1498.42 399.355C1489 386.324 1476.91 375.569 1462.16 367.091C1447.4 358.613 1429.97 354.374 1409.87 354.374C1393.55 354.374 1378.47 357.593 1364.66 364.03C1350.84 370.467 1338.83 379.337 1328.63 390.641C1318.58 401.945 1310.81 414.976 1305.31 429.734C1299.82 444.492 1297.07 460.193 1297.07 476.835C1297.07 493.477 1299.82 509.255 1305.31 524.17C1310.81 538.928 1318.58 552.037 1328.63 563.498C1338.83 574.802 1350.84 583.673 1364.66 590.11C1378.47 596.547 1393.55 599.766 1409.87 599.766C1425.42 599.766 1439.63 597.096 1452.5 591.758C1465.37 586.42 1476.6 579.041 1486.18 569.621C1495.75 560.201 1503.29 549.212 1508.78 536.652C1514.28 524.092 1517.34 510.589 1517.97 496.145H1405.64V463.646Z" fill="#191923"/>
<path d="M1609.46 321.64H1793.15V358.142H1649.26V458.936H1790.33V494.497H1649.26V595.997H1793.15V632.5H1609.46V321.64Z" fill="#191923"/>
<path d="M1894.6 359.791L1897.19 360.262V632.5H1856.92V321.64H1913.68L2074.99 593.642L2072.4 594.113V321.64H2112.67V632.5H2055.45L1894.6 359.791Z" fill="#191923"/>
<path d="M2176.13 321.64H2359.82V358.142H2215.93V458.936H2357V494.497H2215.93V595.997H2359.82V632.5H2176.13V321.64Z" fill="#191923"/>
<path d="M2520.15 315.988C2538.05 315.988 2553.43 318.029 2566.31 322.111C2579.34 326.193 2589.54 330.51 2596.92 335.063C2604.46 339.616 2608.93 342.599 2610.34 344.012L2589.62 377.218C2587.26 375.177 2583.1 372.272 2577.14 368.504C2571.17 364.579 2563.71 361.125 2554.77 358.142C2545.82 355.002 2535.61 353.432 2524.15 353.432C2506.41 353.432 2492.36 357.043 2482 364.265C2471.79 371.33 2466.69 381.378 2466.69 394.409C2466.69 403.201 2469.36 410.973 2474.7 417.724C2480.19 424.318 2487.88 430.362 2497.77 435.857C2507.67 441.352 2519.21 447.004 2532.39 452.813C2543.23 457.366 2553.82 462.547 2564.19 468.356C2574.7 474.165 2584.2 480.995 2592.68 488.845C2601.32 496.695 2608.15 505.801 2613.17 516.163C2618.35 526.525 2620.94 538.457 2620.94 551.959C2620.94 565.304 2618.19 577.315 2612.7 587.991C2607.36 598.667 2599.75 607.773 2589.86 615.309C2580.12 622.688 2568.74 628.339 2555.71 632.264C2542.68 636.189 2528.63 638.152 2513.55 638.152C2494.56 638.152 2477.36 635.797 2461.98 631.087C2446.75 626.377 2434.43 621.431 2425.01 616.25C2415.74 611.069 2410.4 607.851 2408.99 606.595L2430.89 571.977C2432.78 573.546 2436.23 575.902 2441.25 579.042C2446.28 582.025 2452.48 585.164 2459.86 588.461C2467.24 591.758 2475.56 594.584 2484.82 596.939C2494.09 599.137 2503.98 600.237 2514.5 600.237C2535.53 600.237 2551.47 595.527 2562.3 586.107C2573.13 576.687 2578.55 564.597 2578.55 549.839C2578.55 538.535 2575.1 528.801 2568.19 520.637C2561.28 512.473 2552.1 505.173 2540.64 498.736C2529.17 492.299 2516.54 486.097 2502.72 480.132C2488.59 473.694 2475.64 466.629 2463.86 458.936C2452.09 451.243 2442.59 442.059 2435.37 431.383C2428.3 420.55 2424.77 407.519 2424.77 392.29C2424.77 377.218 2429.01 363.951 2437.49 352.49C2446.12 341.029 2457.66 332.08 2472.11 325.643C2486.71 319.206 2502.72 315.988 2520.15 315.988Z" fill="#191923"/>
<path d="M2675.73 321.64H2716.23V632.5H2675.73V321.64Z" fill="#191923"/>
<path d="M2878.92 315.988C2896.81 315.988 2912.2 318.029 2925.07 322.111C2938.11 326.193 2948.31 330.51 2955.69 335.063C2963.23 339.616 2967.7 342.599 2969.11 344.012L2948.39 377.218C2946.03 375.177 2941.87 372.272 2935.91 368.504C2929.94 364.579 2922.48 361.125 2913.54 358.142C2904.59 355.002 2894.38 353.432 2882.92 353.432C2865.18 353.432 2851.13 357.043 2840.77 364.265C2830.56 371.33 2825.46 381.378 2825.46 394.409C2825.46 403.201 2828.13 410.973 2833.47 417.724C2838.96 424.318 2846.65 430.362 2856.54 435.857C2866.44 441.352 2877.97 447.004 2891.16 452.813C2902 457.366 2912.59 462.547 2922.96 468.356C2933.47 474.165 2942.97 480.995 2951.45 488.845C2960.09 496.695 2966.92 505.801 2971.94 516.163C2977.12 526.525 2979.71 538.457 2979.71 551.959C2979.71 565.304 2976.96 577.315 2971.47 587.991C2966.13 598.667 2958.52 607.773 2948.62 615.309C2938.89 622.688 2927.51 628.339 2914.48 632.264C2901.45 636.189 2887.39 638.152 2872.32 638.152C2853.33 638.152 2836.13 635.797 2820.75 631.087C2805.52 626.377 2793.19 621.431 2783.77 616.25C2774.51 611.069 2769.17 607.851 2767.76 606.595L2789.66 571.977C2791.55 573.546 2795 575.902 2800.02 579.042C2805.05 582.025 2811.25 585.164 2818.63 588.461C2826.01 591.758 2834.33 594.584 2843.59 596.939C2852.85 599.137 2862.75 600.237 2873.26 600.237C2894.3 600.237 2910.24 595.527 2921.07 586.107C2931.9 576.687 2937.32 564.597 2937.32 549.839C2937.32 538.535 2933.87 528.801 2926.96 520.637C2920.05 512.473 2910.87 505.173 2899.41 498.736C2887.94 492.299 2875.31 486.097 2861.49 480.132C2847.36 473.694 2834.41 466.629 2822.63 458.936C2810.86 451.243 2801.36 442.059 2794.14 431.383C2787.07 420.55 2783.54 407.519 2783.54 392.29C2783.54 377.218 2787.78 363.951 2796.26 352.49C2804.89 341.029 2816.43 332.08 2830.87 325.643C2845.48 319.206 2861.49 315.988 2878.92 315.988Z" fill="#191923"/>
<defs>
<clipPath id="clip0_6_11">
<rect width="978" height="614.473" fill="white" transform="translate(86.2894 166.763)"/>
</clipPath>
</defs>
</svg>
